<svg width="25" height="25" viewBox="0 0 25 25" fill="none" xmlns="http://www.w3.org/2000/svg">
<path fill-rule="evenodd" clip-rule="evenodd" d="M22.2207 12.9736C22.2207 18.4965 17.7436 22.9736 12.2207 22.9736C6.69786 22.9736 2.2207 18.4965 2.2207 12.9736C2.2207 7.45079 6.69786 2.97363 12.2207 2.97363C17.7436 2.97363 22.2207 7.45079 22.2207 12.9736ZM16.251 9.9433C16.5439 10.2362 16.5439 10.7111 16.251 11.004L11.251 16.004C10.9581 16.2969 10.4833 16.2969 10.1904 16.004L8.19037 14.004C7.89748 13.7111 7.89748 13.2362 8.19037 12.9433C8.48327 12.6504 8.95814 12.6504 9.25103 12.9433L10.7207 14.413L12.9555 12.1781L15.1904 9.9433C15.4833 9.65041 15.9581 9.65041 16.251 9.9433Z" fill="#36A19B"/>
</svg>
