<svg width="254" height="33" viewBox="0 0 254 33" fill="none" xmlns="http://www.w3.org/2000/svg">
<g clip-path="url(#clip0_2314_1886)">
<path d="M111.91 13.7331V20.9C111.91 27.456 117.332 32.7717 124.018 32.7717H130.839C137.526 32.7717 142.947 27.456 142.947 20.9V13.7331C142.947 7.17703 137.526 1.86133 130.839 1.86133H124.018C117.332 1.85868 111.91 7.17439 111.91 13.7331ZM123.751 6.53703H131.109C135.301 6.53703 138.699 9.86926 138.699 13.979V20.9397C138.699 25.0494 135.301 28.3817 131.109 28.3817H123.751C119.559 28.3817 116.161 25.0494 116.161 20.9397V13.979C116.161 9.86662 119.559 6.53703 123.751 6.53703Z" fill="white"/>
<path d="M175.251 2.59627C175.74 3.08817 175.985 3.67263 175.985 4.34437C175.985 5.01875 175.74 5.59528 175.251 6.07396C174.763 6.55263 174.175 6.79329 173.487 6.79329H163.621V30.4363C163.621 31.1344 163.376 31.7242 162.887 32.2029C162.399 32.6816 161.811 32.9222 161.123 32.9222C160.436 32.9222 159.842 32.6842 159.34 32.2029C158.839 31.7242 158.588 31.1344 158.588 30.4363V6.79329H148.762C148.074 6.79329 147.481 6.55528 146.979 6.07396C146.477 5.59528 146.227 5.01875 146.227 4.34437C146.227 3.66999 146.477 3.08817 146.979 2.59627C147.481 2.10437 148.074 1.85842 148.762 1.85842H173.487C174.175 1.85577 174.763 2.10437 175.251 2.59627Z" fill="white"/>
<path d="M205.538 1.85547C206.226 1.85547 206.82 2.10142 207.321 2.59332C207.823 3.08522 208.074 3.66968 208.074 4.34142C208.074 5.0158 207.823 5.59233 207.321 6.071C206.82 6.54968 206.223 6.79034 205.538 6.79034H180.81C180.122 6.79034 179.534 6.55233 179.046 6.071C178.558 5.59233 178.312 5.0158 178.312 4.34142C178.312 3.66704 178.555 3.08522 179.046 2.59332C179.534 2.10142 180.122 1.85547 180.81 1.85547H205.538Z" fill="white"/>
<path d="M103.22 16.4383C104.606 17.6416 105.618 19.2496 106.071 21.0717V30.2327C106.071 30.9045 105.82 31.4889 105.318 31.9808C104.817 32.4727 104.223 32.7187 103.538 32.7187C102.851 32.7187 102.263 32.4701 101.774 31.9808C101.58 31.7878 101.424 31.5762 101.31 31.3514C101.13 31.0102 101.041 30.6373 101.041 30.2327V22.7828C101.041 22.3121 100.954 21.8651 100.793 21.4499C100.339 20.2625 99.2956 19.3607 98.0144 19.0856C97.7447 19.0274 97.4669 18.9957 97.181 18.9957H81.1756V30.2327C81.1756 30.9045 80.9248 31.4889 80.4258 31.9808C80.2208 32.1792 80.0023 32.3378 79.7677 32.4569C79.4251 32.634 79.0502 32.7213 78.6402 32.7213C77.9524 32.7213 77.3644 32.4727 76.8789 31.9835C76.388 31.4889 76.1426 30.9071 76.1426 30.2354V16.7292C76.1426 16.2241 76.2801 15.7745 76.5553 15.3805C76.647 15.2483 76.7548 15.1213 76.8789 15.0023C76.9814 14.9018 77.0839 14.8145 77.1945 14.7352C77.6692 14.2909 78.2302 14.0661 78.883 14.0661H97.1783C97.2349 14.0661 97.2915 14.0661 97.3455 14.0608C99.2956 13.9815 100.871 12.482 101.025 10.5858C101.033 10.4853 101.038 10.3848 101.038 10.2816V6.59239H78.883C78.1979 6.59239 77.6072 6.35173 77.1217 5.87305C76.6308 5.39172 76.388 4.81784 76.388 4.14611C76.388 3.47172 76.6308 2.88726 77.1217 2.39801C77.6099 1.90346 78.1979 1.66016 78.883 1.66016H103.608C104.294 1.66016 104.89 1.9061 105.391 2.39801C105.893 2.88991 106.144 3.47172 106.144 4.14611C106.144 4.34445 106.12 7.91735 106.103 11.0803C105.796 13.1881 104.747 15.0605 103.22 16.4383Z" fill="white"/>
<path d="M205.538 14.0205C206.226 14.0205 206.82 14.2665 207.321 14.7584C207.823 15.2503 208.074 15.8347 208.074 16.5065C208.074 17.1808 207.823 17.7574 207.321 18.236C206.82 18.7147 206.223 18.9554 205.538 18.9554H180.81C180.122 18.9554 179.534 18.7174 179.046 18.236C178.558 17.7574 178.312 17.1808 178.312 16.5065C178.312 15.8321 178.555 15.2503 179.046 14.7584C179.534 14.2665 180.122 14.0205 180.81 14.0205H205.538Z" fill="white"/>
<path d="M41.6444 30.0816C41.6444 30.756 41.3935 31.3378 40.8918 31.8297C40.3901 32.3216 39.7941 32.5675 39.109 32.5675C38.4212 32.5675 37.8332 32.3216 37.345 31.8297C36.8568 31.3378 36.6113 30.7533 36.6113 30.0816V4.30439C36.6113 3.63001 36.8541 3.05349 37.345 2.57481C37.8332 2.09613 38.4212 1.85547 39.109 1.85547C39.7968 1.85547 40.3901 2.09349 40.8918 2.57481C41.3935 3.05349 41.6444 3.63001 41.6444 4.30439V30.0816Z" fill="white"/>
<path d="M34.2969 30.0822C34.2969 30.7566 34.0461 31.341 33.5444 31.8303C33.0427 32.3248 32.4493 32.5681 31.7642 32.5681C31.0764 32.5681 30.4884 32.3222 30.0002 31.8303C29.512 31.3384 29.2666 30.7566 29.2666 30.0822V9.47525L20.7892 20.0273L19.4433 21.704C18.4966 22.8809 16.6786 22.8809 15.7319 21.704L14.386 20.0273L5.83307 9.38269V30.0822C5.83307 30.7566 5.57953 31.341 5.08054 31.8303C4.57616 32.3248 3.98277 32.5681 3.29767 32.5681C2.61258 32.5681 2.02188 32.3222 1.53638 31.8303C1.04549 31.3384 0.802734 30.7566 0.802734 30.0822C0.802734 30.0822 0.802734 11.3794 0.805432 4.43459C0.805432 3.02236 1.97333 1.87988 3.41365 1.87988H4.51682C5.40421 1.87988 6.24574 2.27393 6.80407 2.95096L17.5903 16.0419L28.2335 2.96418C28.7919 2.27922 29.6388 1.87988 30.5316 1.87988H31.7399C33.183 1.87988 34.3509 3.02765 34.3482 4.43988C34.3347 11.3873 34.2969 30.0822 34.2969 30.0822Z" fill="white"/>
<path d="M205.538 27.9268C206.226 27.9268 206.82 28.1727 207.321 28.6646C207.823 29.1565 208.074 29.741 208.074 30.4127C208.074 31.0871 207.823 31.6636 207.321 32.1423C206.82 32.621 206.223 32.8616 205.538 32.8616H180.81C180.122 32.8616 179.534 32.6236 179.046 32.1423C178.558 31.6636 178.312 31.0871 178.312 30.4127C178.312 29.7383 178.555 29.1565 179.046 28.6646C179.534 28.1727 180.122 27.9268 180.81 27.9268H205.538Z" fill="white"/>
<path d="M237.779 27.9262H220.396C217.72 27.9262 215.551 25.7999 215.551 23.1765V11.556C215.551 8.93249 217.72 6.80621 220.396 6.80621H237.779C238.467 6.80621 239.06 6.5682 239.562 6.08687C240.064 5.6082 240.315 5.03167 240.315 4.35729C240.315 3.68291 240.064 3.10109 239.562 2.60919C239.06 2.11729 238.464 1.85547 237.779 1.85547H220.021C214.915 1.85547 210.777 5.91233 210.777 10.9186V23.7874C210.777 28.7936 214.915 32.8505 220.021 32.8505H237.779C238.467 32.8505 239.06 32.6178 239.562 32.1391C240.064 31.6604 240.315 31.0839 240.315 30.4095C240.315 29.7351 240.064 29.1533 239.562 28.6614C239.06 28.1722 238.467 27.9262 237.779 27.9262Z" fill="white"/>
<path d="M71.2656 27.9262H53.882C51.2063 27.9262 49.0378 25.7999 49.0378 23.1765V11.556C49.0378 8.93249 51.2063 6.80621 53.882 6.80621H71.2656C71.9534 6.80621 72.5468 6.5682 73.0485 6.08687C73.5502 5.6082 73.801 5.03167 73.801 4.35729C73.801 3.68291 73.5502 3.10109 73.0485 2.60919C72.5468 2.11729 71.9507 1.85547 71.2656 1.85547H53.5071C48.4012 1.85547 44.2637 5.91233 44.2637 10.9186V23.7874C44.2637 28.7936 48.4012 32.8505 53.5071 32.8505H71.2656C71.9534 32.8505 72.5468 32.6178 73.0485 32.1391C73.5502 31.6604 73.801 31.0839 73.801 30.4095C73.801 29.7351 73.5502 29.1533 73.0485 28.6614C72.5468 28.1722 71.9534 27.9262 71.2656 27.9262Z" fill="white"/>
<path d="M122.164 14.54H110.021V15.307H122.164V14.54Z" fill="white"/>
<path d="M145.119 13.8623H132.977V14.6292H145.119V13.8623Z" fill="white"/>
<path d="M144.661 19.2344H131.396V20.0542H144.661V19.2344Z" fill="white"/>
<path d="M125.072 20.0508H110.021V20.8177H125.072V20.0508Z" fill="white"/>
<path d="M128.283 14.4629L126.991 15.7297L126.039 16.6632C125.659 17.0361 125.144 17.245 124.607 17.245H107.83V18.2685H124.402H124.823C125.497 18.2685 126.144 18.0067 126.622 17.5386L129.052 15.1558C128.933 14.8146 128.645 14.5475 128.283 14.4629Z" fill="white"/>
<path d="M131.159 16.1482C130.472 16.1482 129.811 16.4179 129.323 16.8939L128.656 17.5472L127.332 18.8457C127.435 19.1948 127.712 19.4698 128.071 19.5677L129.393 18.2718L129.919 17.7561C130.302 17.3806 130.822 17.169 131.364 17.169H147.979V16.1455H131.159V16.1482Z" fill="white"/>
<path d="M129.433 18.5597C129.433 19.1389 128.953 19.6096 128.362 19.6096C128.259 19.6096 128.162 19.5964 128.071 19.5699C127.714 19.4721 127.434 19.1997 127.331 18.8479C127.305 18.7554 127.291 18.6575 127.291 18.5597C127.291 17.9805 127.771 17.5098 128.362 17.5098C128.464 17.5098 128.561 17.5256 128.656 17.5494C129.012 17.6499 129.292 17.9223 129.392 18.2741C129.419 18.3613 129.433 18.4592 129.433 18.5597Z" fill="white"/>
<path d="M146.368 19.6437C146.368 20.2228 145.888 20.6936 145.297 20.6936C145.195 20.6936 145.098 20.6804 145.006 20.6539C144.65 20.5561 144.37 20.2837 144.267 19.9319C144.24 19.8394 144.227 19.7415 144.227 19.6437C144.227 19.0645 144.707 18.5938 145.297 18.5938C145.4 18.5938 145.497 18.6096 145.591 18.6334C145.947 18.7339 146.228 19.0063 146.328 19.358C146.355 19.4453 146.368 19.5432 146.368 19.6437Z" fill="white"/>
<path d="M129.101 15.4845C129.101 16.0637 128.621 16.5344 128.031 16.5344C127.912 16.5344 127.801 16.5159 127.696 16.4842C127.345 16.3704 127.076 16.0875 126.989 15.7331C126.968 15.6537 126.957 15.5691 126.957 15.4845C126.957 14.9053 127.437 14.4346 128.028 14.4346C128.114 14.4346 128.2 14.4451 128.281 14.4663C128.643 14.5509 128.934 14.8154 129.047 15.1592C129.082 15.2597 129.101 15.3681 129.101 15.4845Z" fill="white"/>
<path d="M108.594 17.8087C108.594 18.6233 107.92 19.2844 107.089 19.2844C106.925 19.2844 106.768 19.258 106.62 19.213C106.129 19.0543 105.749 18.6576 105.627 18.1578C105.597 18.0467 105.584 17.9277 105.584 17.8087C105.584 16.9942 106.258 16.333 107.089 16.333C107.21 16.333 107.332 16.3462 107.445 16.3753C107.955 16.4943 108.359 16.8672 108.521 17.3485C108.567 17.494 108.594 17.6474 108.594 17.8087Z" fill="white"/>
<path d="M149.2 16.5101C149.2 17.2295 148.607 17.8113 147.873 17.8113C147.728 17.8113 147.59 17.7901 147.46 17.7478C147.029 17.6077 146.692 17.2586 146.587 16.8169C146.56 16.7191 146.549 16.6133 146.549 16.5101C146.549 15.7908 147.142 15.209 147.876 15.209C147.981 15.209 148.089 15.2222 148.189 15.246C148.636 15.3491 148.995 15.6797 149.138 16.1029C149.179 16.2298 149.2 16.3673 149.2 16.5101Z" fill="white"/>
<path d="M126.806 20.4347C126.806 21.0139 126.326 21.4846 125.736 21.4846C125.617 21.4846 125.506 21.4661 125.401 21.4344C125.051 21.3206 124.781 21.0377 124.694 20.6833C124.673 20.6039 124.662 20.5193 124.662 20.4347C124.662 19.8555 125.142 19.3848 125.733 19.3848C125.819 19.3848 125.906 19.3953 125.986 19.4165C126.348 19.5011 126.639 19.7656 126.752 20.1094C126.788 20.2099 126.806 20.321 126.806 20.4347Z" fill="white"/>
<path d="M133.769 14.2462C133.769 14.8254 133.289 15.2961 132.698 15.2961C132.58 15.2961 132.469 15.2776 132.364 15.2459C132.013 15.1322 131.744 14.8492 131.657 14.4948C131.636 14.4155 131.625 14.3308 131.625 14.2462C131.625 13.667 132.105 13.1963 132.696 13.1963C132.782 13.1963 132.868 13.2069 132.949 13.228C133.311 13.3127 133.602 13.5771 133.715 13.9209C133.75 14.0214 133.769 14.1298 133.769 14.2462Z" fill="white"/>
<path d="M110.838 14.923C110.838 15.5021 110.358 15.9729 109.767 15.9729C109.648 15.9729 109.538 15.9544 109.432 15.9226C109.082 15.8089 108.812 15.5259 108.726 15.1716C108.704 15.0922 108.693 15.0076 108.693 14.923C108.693 14.3438 109.173 13.873 109.764 13.873C109.85 13.873 109.937 13.8836 110.018 13.9048C110.379 13.9894 110.67 14.2539 110.784 14.5977C110.819 14.6982 110.838 14.8066 110.838 14.923Z" fill="white"/>
<path d="M123.066 14.9228C123.066 15.3327 122.726 15.666 122.308 15.666C122.224 15.666 122.146 15.6527 122.073 15.6289C121.828 15.5496 121.634 15.3486 121.574 15.0974C121.561 15.0418 121.553 14.981 121.553 14.9228C121.553 14.5129 121.893 14.1797 122.311 14.1797C122.373 14.1797 122.432 14.1876 122.489 14.2008C122.745 14.2617 122.95 14.4494 123.031 14.6901C123.052 14.7642 123.066 14.8408 123.066 14.9228Z" fill="white"/>
<path d="M146.048 14.2461C146.048 14.656 145.708 14.9892 145.29 14.9892C145.207 14.9892 145.129 14.976 145.056 14.9522C144.81 14.8728 144.616 14.6719 144.557 14.4206C144.543 14.3651 144.535 14.3043 144.535 14.2461C144.535 13.8362 144.875 13.5029 145.293 13.5029C145.355 13.5029 145.414 13.5109 145.471 13.5241C145.727 13.5849 145.932 13.7727 146.013 14.0133C146.035 14.0874 146.048 14.1641 146.048 14.2461Z" fill="white"/>
<path d="M110.591 20.3232C110.591 20.7331 110.251 21.0664 109.833 21.0664C109.75 21.0664 109.672 21.0531 109.599 21.0293C109.353 20.95 109.159 20.749 109.1 20.4978C109.086 20.4422 109.078 20.3814 109.078 20.3232C109.078 19.9133 109.418 19.5801 109.836 19.5801C109.898 19.5801 109.957 19.588 110.014 19.6012C110.27 19.6621 110.475 19.8498 110.556 20.0905C110.58 20.1645 110.591 20.2439 110.591 20.3232Z" fill="white"/>
<path d="M131.839 19.6435C131.839 20.0534 131.499 20.3867 131.081 20.3867C130.998 20.3867 130.92 20.3734 130.847 20.3496C130.601 20.2703 130.407 20.0693 130.348 19.8181C130.334 19.7625 130.326 19.7017 130.326 19.6435C130.326 19.2336 130.666 18.9004 131.084 18.9004C131.146 18.9004 131.205 18.9083 131.262 18.9215C131.518 18.9824 131.723 19.1701 131.804 19.4108C131.826 19.4822 131.839 19.5615 131.839 19.6435Z" fill="white"/>
<path d="M249.951 7.90127C249.306 7.90127 248.71 7.75582 248.168 7.46755C247.623 7.17929 247.197 6.77202 246.881 6.24838C246.569 5.73003 246.412 5.1535 246.412 4.52144C246.412 3.88408 246.566 3.30491 246.873 2.79185C247.181 2.27615 247.615 1.87152 248.173 1.57532C248.726 1.28706 249.32 1.1416 249.954 1.1416C250.28 1.1416 250.593 1.17863 250.895 1.25003C251.197 1.32144 251.478 1.42987 251.739 1.57003C252.001 1.71284 252.241 1.8821 252.462 2.08573C252.683 2.28673 252.872 2.51945 253.026 2.77598C253.339 3.29962 253.495 3.88144 253.495 4.52144C253.495 4.84144 253.455 5.14821 253.371 5.44441C253.287 5.74061 253.169 6.01301 253.015 6.26689C252.861 6.52078 252.675 6.74821 252.457 6.9545C252.238 7.16078 251.99 7.33532 251.715 7.47813C251.165 7.76111 250.579 7.90127 249.951 7.90127ZM249.951 7.17929C250.32 7.17929 250.663 7.11053 250.979 6.97565C251.294 6.84078 251.569 6.65301 251.804 6.41499C252.039 6.17697 252.219 5.89664 252.351 5.574C252.484 5.25135 252.551 4.89962 252.551 4.52144C252.551 4.14855 252.484 3.79945 252.351 3.47681C252.219 3.15416 252.036 2.87383 251.804 2.63053C251.569 2.38987 251.294 2.2021 250.973 2.06458C250.655 1.9297 250.31 1.86094 249.94 1.86094C249.571 1.86094 249.231 1.9297 248.918 2.06458C248.605 2.19945 248.33 2.38458 248.098 2.61995C247.863 2.85532 247.682 3.13565 247.55 3.46094C247.418 3.78623 247.351 4.13797 247.351 4.51879C247.351 4.89962 247.415 5.25136 247.55 5.57664C247.682 5.90193 247.866 6.18491 248.098 6.42292C248.333 6.66094 248.605 6.84606 248.923 6.9783C249.242 7.11053 249.581 7.17929 249.951 7.17929ZM250.08 6.5102C249.786 6.5102 249.517 6.45995 249.274 6.35681C249.031 6.25367 248.823 6.1135 248.648 5.93631C248.473 5.75912 248.338 5.54755 248.244 5.30425C248.149 5.06094 248.101 4.79383 248.101 4.50557C248.101 4.19879 248.149 3.91846 248.244 3.66987C248.338 3.41863 248.473 3.20706 248.645 3.03251C248.818 2.85797 249.023 2.72309 249.263 2.62524C249.503 2.53003 249.77 2.47978 250.064 2.47978C250.512 2.47978 250.89 2.60408 251.194 2.85532C251.499 3.10656 251.677 3.44772 251.734 3.88144H251.014C250.965 3.66458 250.852 3.49797 250.676 3.37896C250.501 3.2626 250.296 3.20177 250.064 3.20177C249.714 3.20177 249.446 3.32078 249.263 3.55879C249.08 3.79681 248.988 4.10623 248.988 4.48441C248.988 4.67218 249.015 4.84408 249.072 5.0054C249.126 5.16408 249.201 5.3016 249.298 5.41797C249.393 5.53169 249.509 5.6216 249.643 5.69036C249.778 5.75648 249.927 5.79086 250.086 5.79086C250.331 5.79086 250.539 5.73003 250.709 5.61102C250.879 5.48937 250.981 5.31483 251.019 5.08739H251.766C251.728 5.30425 251.661 5.50259 251.564 5.67978C251.464 5.85697 251.343 6.00772 251.194 6.13202C251.046 6.25631 250.879 6.35152 250.693 6.41764C250.496 6.47846 250.296 6.5102 250.08 6.5102Z" fill="white"/>
</g>
<defs>
<clipPath id="clip0_2314_1886">
<rect width="253" height="32" fill="white" transform="translate(0.607422 0.956055)"/>
</clipPath>
</defs>
</svg>
